<svg width="24" height="24" viewBox="0 0 24 24" fill="none" xmlns="http://www.w3.org/2000/svg">
<path d="M19.5884 20.9947L13.2921 14.6984C12.7924 15.0982 12.2177 15.4147 11.5681 15.6478C10.9185 15.881 10.2272 15.9976 9.49433 15.9976C7.67873 15.9976 6.14214 15.3688 4.88455 14.1113C3.62696 12.8537 2.99817 11.3171 2.99817 9.50148C2.99817 7.68589 3.62696 6.1493 4.88455 4.89171C6.14214 3.63412 7.67873 3.00533 9.49433 3.00533C11.3099 3.00533 12.8465 3.63412 14.1041 4.89171C15.3617 6.1493 15.9905 7.68589 15.9905 9.50148C15.9905 10.2344 15.8739 10.9256 15.6407 11.5753C15.4075 12.2249 15.091 12.7995 14.6913 13.2992L20.9875 19.5955L19.5884 20.9947ZM9.49433 13.9988C10.7436 13.9988 11.8055 13.5616 12.6799 12.6871C13.5544 11.8126 13.9917 10.7507 13.9917 9.50148C13.9917 8.25222 13.5544 7.19035 12.6799 6.31587C11.8055 5.44138 10.7436 5.00414 9.49433 5.00414C8.24507 5.00414 7.18319 5.44138 6.30871 6.31587C5.43423 7.19035 4.99699 8.25222 4.99699 9.50148C4.99699 10.7507 5.43423 11.8126 6.30871 12.6871C7.18319 13.5616 8.24507 13.9988 9.49433 13.9988Z" fill="black"/>
</svg>
