<svg width="81" height="82" viewBox="0 0 81 82" fill="none" xmlns="http://www.w3.org/2000/svg">
<mask id="mask0_382_43" style="mask-type:luminance" maskUnits="userSpaceOnUse" x="40" y="36" width="26" height="26">
<path d="M65.9582 41.8669C65.9582 40.0123 65.7937 38.2301 65.4847 36.5203H40.8691V46.6282H54.9361C54.3311 49.8967 52.4897 52.6654 49.721 54.5133V61.07H58.1651C63.104 56.5191 65.9582 49.8178 65.9582 41.8603V41.8669Z" fill="white"/>
</mask>
<g mask="url(#mask0_382_43)">
<path d="M80.4789 21.9995H26.355V75.5907H80.4789V21.9995Z" fill="#3E82F1"/>
</g>
<mask id="mask1_382_43" style="mask-type:luminance" maskUnits="userSpaceOnUse" x="17" y="46" width="42" height="22">
<path d="M40.8758 67.4031C47.9323 67.4031 53.8445 65.0619 58.1717 61.07L49.7276 54.5133C47.3864 56.0785 44.3942 57.0058 40.8758 57.0058C34.0692 57.0058 28.3083 52.4089 26.2498 46.2336H17.5164V53.0074C21.8173 61.5501 30.656 67.4031 40.8692 67.4031H40.8758Z" fill="white"/>
</mask>
<g mask="url(#mask1_382_43)">
<path d="M72.6925 31.7192H3.0022V81.9236H72.6925V31.7192Z" fill="#32A753"/>
</g>
<mask id="mask2_382_43" style="mask-type:luminance" maskUnits="userSpaceOnUse" x="14" y="29" width="13" height="25">
<path d="M26.2499 46.2402C25.7304 44.675 25.4279 42.998 25.4279 41.275C25.4279 39.552 25.7238 37.875 26.2499 36.3098V29.5361H17.5164C15.7474 33.0611 14.7346 37.053 14.7346 41.275C14.7346 45.4971 15.7474 49.4824 17.5164 53.0139L26.2499 46.2402Z" fill="white"/>
</mask>
<g mask="url(#mask2_382_43)">
<path d="M40.7704 15.0154H0.220215V67.528H40.7704V15.0154Z" fill="#F9BB00"/>
</g>
<mask id="mask3_382_43" style="mask-type:luminance" maskUnits="userSpaceOnUse" x="17" y="15" width="42" height="22">
<path d="M40.8758 25.5309C44.7098 25.5309 48.1559 26.8527 50.8654 29.4372L58.3625 21.9401C53.8379 17.7247 47.9191 15.1335 40.8758 15.1335C30.6626 15.1335 21.8239 20.9931 17.5229 29.5293L26.2564 36.303C28.3083 30.1278 34.0758 25.5309 40.8824 25.5309H40.8758Z" fill="white"/>
</mask>
<g mask="url(#mask3_382_43)">
<path d="M72.8766 0.619629H3.0022V50.824H72.8766V0.619629Z" fill="#E74133"/>
</g>
</svg>
