<svg width="150" height="170" viewBox="0 0 150 170" fill="none" xmlns="http://www.w3.org/2000/svg">
<path d="M141.097 53.2129H8.85449C3.96429 53.2129 0 57.252 0 62.2344V160.305C0 165.288 3.96429 169.327 8.85449 169.327H141.097C145.987 169.327 149.951 165.288 149.951 160.305V62.2344C149.951 57.252 145.987 53.2129 141.097 53.2129Z" fill="#0066F9"/>
<path d="M120.165 11.9192C107.366 9.60297 97.8821 8.19335 95.7173 8.30391C94.8167 8.34814 93.992 8.56925 93.992 8.56925C92.3426 9.00596 91.1327 9.89042 90.3623 10.5759C96.4877 13.76 102.613 16.9385 108.744 20.1226C112.553 17.3863 116.362 14.6555 120.165 11.9192Z" fill="#0066F9"/>
<path d="M128.96 18.6904C132.231 25.429 135.904 32.9967 135.97 33.1293C135.986 33.1625 136.002 33.2012 136.002 33.2012C136.035 33.2675 136.067 33.3449 136.111 33.4389C136.241 33.7429 136.425 34.2073 136.572 34.7822C137 36.4406 136.87 37.8778 136.686 38.8397C131.559 34.8927 126.426 30.9458 121.299 27.0044C123.854 24.2349 126.41 21.4654 128.96 18.6904Z" fill="#0066F9"/>
<path d="M107.832 19.6247C104.919 28.7955 102 37.9663 99.0865 47.1371L52.2532 47.419C62.0083 45.1415 74.639 41.0453 88.0943 33.3671C95.9505 28.8839 102.505 24.0857 107.832 19.6191V19.6247Z" fill="#0066F9"/>
<path d="M117.979 119.481C121.326 119.481 124.039 116.717 124.039 113.307C124.039 109.896 121.326 107.132 117.979 107.132C114.632 107.132 111.918 109.896 111.918 113.307C111.918 116.717 114.632 119.481 117.979 119.481Z" fill="#0066F9" stroke="white" stroke-width="6.59973" stroke-miterlimit="10"/>
<path d="M44.8148 47.0152L86.5101 29.7018C88.8214 28.74 89.9282 26.0589 88.9896 23.704L85.0832 13.9417C84.1392 11.5869 81.5078 10.4592 79.1965 11.4155L5.34941 42.0788C3.37994 42.8969 2.30026 44.9644 2.59866 47.0152H44.8202H44.8148Z" fill="#0066F9"/>
<path d="M99.1029 47.1596L88.8052 37.4249L121.282 2.3282C124.104 -0.0874997 128.276 0.0838656 130.842 2.64882C133.305 5.11427 133.647 9.14412 131.58 12.0629C123.122 21.3497 107.567 37.8672 99.1083 47.1596H99.1029Z" fill="#0066F9"/>
<mask id="mask0_450_513" style="mask-type:luminance" maskUnits="userSpaceOnUse" x="0" y="53" width="150" height="117">
<path d="M141.097 53.2129H8.85449C3.96429 53.2129 0 57.252 0 62.2344V160.305C0 165.288 3.96429 169.327 8.85449 169.327H141.097C145.987 169.327 149.951 165.288 149.951 160.305V62.2344C149.951 57.252 145.987 53.2129 141.097 53.2129Z" fill="white"/>
</mask>
<g mask="url(#mask0_450_513)">
<path d="M53.8157 51.2832C24.4635 82.7094 -4.88322 114.136 -34.23 145.562" stroke="white" stroke-width="5.27979" stroke-linecap="round" stroke-linejoin="bevel"/>
<path d="M92.6192 50.7256C62.03 83.6056 25.1363 123.523 -5.45288 156.403" stroke="white" stroke-width="5.27979" stroke-linecap="round" stroke-linejoin="bevel"/>
<path d="M69.7019 53.2734L65.3506 57.9777" stroke="white" stroke-width="5.27979" stroke-linecap="round" stroke-linejoin="bevel"/>
<path d="M55.8831 68.2148L-15.1101 144.986" stroke="white" stroke-width="5.27979" stroke-linecap="round" stroke-linejoin="bevel" stroke-dasharray="17.22 17.22"/>
</g>
<mask id="mask1_450_513" style="mask-type:luminance" maskUnits="userSpaceOnUse" x="0" y="53" width="150" height="117">
<path d="M141.091 169.327H8.85449C3.96607 169.327 0 165.286 0 160.305V62.2344C0 57.2538 3.96607 53.2129 8.85449 53.2129H141.091C145.98 53.2129 149.946 57.2538 150 62.1902V160.255C149.946 165.286 145.98 169.327 141.091 169.327Z" fill="white"/>
</mask>
<g mask="url(#mask1_450_513)">
<path d="M111.272 131.228C101.544 131.228 93.6338 123.168 93.6284 113.262C93.6284 108.486 95.4731 103.981 98.8207 100.57C102.168 97.1646 106.59 95.2852 111.272 95.2852H152.799V131.233H111.272V131.228Z" fill="#0066F9"/>
<path d="M111.272 97.9831C111.332 97.9831 111.397 97.9831 111.457 97.9831H150.152V128.541C123.16 128.541 138.449 128.541 111.457 128.536C111.397 128.536 111.332 128.536 111.272 128.536C103.058 128.536 96.2762 121.648 96.2762 113.262C96.2762 104.876 103.058 97.9831 111.272 97.9831ZM111.272 92.5934C105.885 92.5934 100.801 94.7493 96.9544 98.6631C93.1023 102.582 90.9863 107.768 90.9863 113.262C90.9863 124.655 100.09 133.926 111.272 133.926C111.343 133.926 111.413 133.926 111.484 133.926C124.956 133.926 127.875 133.926 130.799 133.926C133.723 133.926 136.653 133.926 150.146 133.926H155.436V128.536V92.5879H111.479C111.408 92.5879 111.338 92.5879 111.267 92.5879L111.272 92.5934Z" fill="white"/>
</g>
<path d="M112.976 119.481C116.323 119.481 119.037 116.717 119.037 113.307C119.037 109.896 116.323 107.132 112.976 107.132C109.629 107.132 106.916 109.896 106.916 113.307C106.916 116.717 109.629 119.481 112.976 119.481Z" fill="#0066F9" stroke="white" stroke-width="6.59973" stroke-miterlimit="10"/>
</svg>
