<svg width="49" height="49" viewBox="0 0 49 49" fill="none" xmlns="http://www.w3.org/2000/svg">
<path d="M32.0167 42.9395V10.9395C32.0167 9.87859 31.5953 8.86117 30.8451 8.11103C30.095 7.36088 29.0776 6.93945 28.0167 6.93945H20.0167C18.9558 6.93945 17.9384 7.36088 17.1883 8.11103C16.4381 8.86117 16.0167 9.87859 16.0167 10.9395V42.9395M8.01669 14.9395H40.0167C42.2258 14.9395 44.0167 16.7303 44.0167 18.9395V38.9395C44.0167 41.1486 42.2258 42.9395 40.0167 42.9395H8.01669C5.80755 42.9395 4.01669 41.1486 4.01669 38.9395V18.9395C4.01669 16.7303 5.80755 14.9395 8.01669 14.9395Z" stroke="#1E1E1E" stroke-width="4" stroke-linecap="round" stroke-linejoin="round"/>
</svg>
