<svg width="45" height="50" viewBox="0 0 45 50" fill="none" xmlns="http://www.w3.org/2000/svg">
<path d="M36.0605 35.4709C36.0605 39.8713 32.4931 43.4387 28.0928 43.4387H11.1025C6.70226 43.4386 3.13481 39.8712 3.13477 35.4709V16.6858H36.0605V35.4709Z" fill="#F99100"/>
<path d="M37.0723 16.6858C41.3948 16.6858 44.8994 20.1904 44.8994 24.5129C44.8992 28.8353 41.3947 32.3391 37.0723 32.3391H24.9834C20.661 32.3391 17.1564 28.8353 17.1562 24.5129C17.1562 20.1904 20.6609 16.6858 24.9834 16.6858H37.0723ZM24.1094 20.4182C21.8489 20.4184 20.0166 22.2514 20.0166 24.512C20.0166 26.7725 21.8489 28.6055 24.1094 28.6057H36.8076C39.0681 28.6055 40.9004 26.7725 40.9004 24.512C40.9004 22.2514 39.0681 20.4185 36.8076 20.4182H24.1094Z" fill="#F99100"/>
<path d="M2.38867 47.3745H36.8102" stroke="#F99100" stroke-width="4.78054" stroke-linecap="round"/>
<path d="M13.6895 10.0283L13.6895 19.3407" stroke="#F99100" stroke-width="4.78054" stroke-linecap="round"/>
<path d="M21.2861 2.6543L21.2861 11.9666" stroke="#F99100" stroke-width="4.78054" stroke-linecap="round"/>
</svg>
